<?xml version="1.0" encoding="UTF-8" standalone="no"?>
<svg
   viewBox="0 0 120 120"
   version="1.1"
   id="svg5"
   sodipodi:docname="icon.svg"
   inkscape:version="1.3 (0e150ed6c4, 2023-07-21)"
   xmlns:inkscape="http://www.inkscape.org/namespaces/inkscape"
   xmlns:sodipodi="http://sodipodi.sourceforge.net/DTD/sodipodi-0.dtd"
   xmlns="http://www.w3.org/2000/svg"
   xmlns:svg="http://www.w3.org/2000/svg">
  <defs
     id="defs5" />
  <sodipodi:namedview
     id="namedview5"
     pagecolor="#ffffff"
     bordercolor="#000000"
     borderopacity="0.25"
     inkscape:showpageshadow="2"
     inkscape:pageopacity="0.0"
     inkscape:pagecheckerboard="0"
     inkscape:deskcolor="#d1d1d1"
     inkscape:zoom="6.4583333"
     inkscape:cx="45.6"
     inkscape:cy="66.967742"
     inkscape:window-width="1920"
     inkscape:window-height="1003"
     inkscape:window-x="0"
     inkscape:window-y="0"
     inkscape:window-maximized="1"
     inkscape:current-layer="svg5" />
  <circle
     cx="60"
     cy="60"
     r="60"
     fill="#333"
     id="circle1"
     style="fill:#69696e;fill-opacity:1" />
  <path
     d="M80.7 100.1c-6.2 3.3-13.2 5.1-20.7 5.1-24.8 0-44.8-20.2-44.8-45.2s20-45.2 44.8-45.2S104.8 35 104.8 60c0 2.9-.3 5.8-.8 8.5-2.4 10.2-9 8.6-9 8.6s-9-4.3-15.7.9c-4.3 3.3-1.3 14.5 1.4 22.1zM69.1 88.4c0-3.2-2.6-5.8-5.8-5.8s-5.8 2.6-5.8 5.8c0 3.2 2.6 5.8 5.8 5.8s5.8-2.6 5.8-5.8z"
     fill="#1d1f21"
     id="path1"
     style="fill:#000c23;fill-opacity:1" />
  <circle
     cx="39.1"
     cy="74"
     r="10.7"
     fill="#e74c3c"
     id="circle2"
     style="fill:#f97a70;fill-opacity:1" />
  <circle
     cx="35.6"
     cy="46.8"
     r="10.7"
     fill="#2ecc71"
     id="circle3"
     style="fill:#fcfc30;fill-opacity:1" />
  <circle
     cx="60"
     cy="32.2"
     r="10.7"
     fill="#3498db"
     id="circle4"
     style="fill:#465eff;fill-opacity:1" />
  <circle
     cx="84.5"
     cy="45.8"
     r="10.7"
     fill="#9b59b6"
     id="circle5"
     style="fill:#735cc6;fill-opacity:1" />
</svg>
